<?xml version="1.0" encoding="UTF-8"?>
<svg id="Layer_1" data-name="Layer 1" xmlns="http://www.w3.org/2000/svg" viewBox="0 0 414.02 544.2">
  <defs>
    <style>
      .cls-1 {
        fill: #2f3332;
      }

      .cls-2 {
        fill: #ad8446;
      }

      .cls-3 {
        fill: #343e36;
      }
    </style>
  </defs>
  <g id="Layer_2" data-name="Layer 2">
    <path class="cls-2" d="m111.75,372.66c-.4.21-2.88,1.54-3.65,4.5-.95,3.65,1.53,6.45,1.72,6.65,1.97,2.35,5.11,5.54,9.65,8.36,4.92,3.06,9.54,4.46,12.65,5.15,6.98,2.2,15.02,4.27,24.02,5.79,6.6,1.12,12.78,1.78,18.44,2.14,11.58.79,23.16,1.57,34.74,2.36,10.3.13,22.07-.34,34.95-1.93,11.88-1.47,22.59-3.63,31.95-6,3.67-.38,11.48-1.69,19.3-7.29,6.7-4.8,10.3-10.53,12.01-13.72l-3.86-10.08-15.87-8.79c-9.34-2.63-19.96-5.07-31.74-6.86-10.19-1.56-19.69-2.4-28.3-2.79-7.82-.36-16.2-.47-25.09-.21-8.26.24-16.07.78-23.37,1.5-7.45.63-15.57,1.64-24.23,3.22-8.17,1.48-15.71,3.27-22.56,5.16-3.13.98-7.19,2.6-11.53,5.34-4.01,2.53-7.05,5.25-9.22,7.51h-.01Z"/>
    <polygon class="cls-1" points="117.33 391.1 120.33 402.68 128.05 408.68 133.63 443.85 141.35 493.59 143.06 508.18 145.21 523.19 154.21 532.19 157.21 527.9 171.37 533.48 173.51 539.48 188.52 542.91 216.83 544.2 250.71 537.34 265.72 530.48 272.15 523.61 275.58 512.89 287.16 437.41 290.59 406.96 299.17 398.82 298.74 390.24 285.02 397.96 256.71 404.39 218.97 407.39 182.09 405.68 151.21 401.82 117.33 391.1"/>
  </g>
  <g id="Layer_3" data-name="Layer 3">
    <path class="cls-3" d="m157.1,380.59c10.02-11.26,20.06-22.52,30.08-33.78l30.82-40.8,17.82-44.75,6.68-50.46c-7.33-22.46-14.66-44.92-21.99-67.39l-18.76-34.85c6.55-1.19,13.11-2.39,19.66-3.57,3.57,11.91,7.15,23.83,10.72,35.74,5.93,11.51,11.87,23.02,17.8,34.53,1.22,12.62,2.43,25.23,3.65,37.84-1.19,11.91-2.39,23.83-3.57,35.74-2.68,8.64-5.36,17.27-8.04,25.91-5.07,11.62-10.12,23.23-15.19,34.85-6.4,8.76-12.79,17.5-19.18,26.26l-23.02,25.88-27.48,18.87h0v-.02Z"/>
    <path class="cls-3" d="m267.84,385.41c14.26-13.55,28.52-27.11,42.78-40.66l43.83-49.11,25.35-53.87,9.51-60.74,6.33-92.95c3.98-13.36,7.97-26.71,11.95-40.07,2.14,2.79,4.29,5.58,6.43,8.36-3.84,13.04-7.67,26.07-11.52,39.11l-2.64,42.78-2.64,54.92-5.28,33.27-8.98,32.75-22.18,39.08-21.12,33.27-32.75,31.16-26.94,21.12c-4.05.53-8.09,1.05-12.15,1.58h.02Z"/>
    <path class="cls-3" d="m153.24,376.88c-14.69-13.96-29.37-27.92-44.06-41.89l-45.15-50.59-26.11-55.48-9.79-62.55c1.6-59.99-2.36-84.59-6.53-95.73-.26-.7-1.82-4.8-8.55-22.58-.67-1.77-7.88-20.82-8.55-22.58L0,35.77c5.09,10.15,10.99,24.52,14.53,42.48,3.47,17.61,3.52,32.86,2.72,44.06l2.72,56.57,5.44,34.26,9.25,33.73c6.94,13.01,14.53,26.46,22.85,40.25,7.26,12.03,14.54,23.45,21.76,34.26l33.73,32.09,27.74,21.76c4.17.55,8.34,1.09,12.51,1.64v.02h0Z"/>
    <path class="cls-3" d="m209.03,369.09c-14.69-13.96-29.37-27.92-44.06-41.89l-45.15-50.59-26.11-55.48-9.79-62.55c-1.55-33.13-3.1-66.27-4.65-99.4,2.54-6.03,6.74-13.98,13.72-21.87,13.29-15.01,28.98-21.13,36.88-23.59l10.51-13.72c-17.94,9.72-35.88,19.44-53.82,29.16-2.89,1.94-15.41,10.81-19.3,27.88-3.15,13.86,1.23,25.01,2.89,28.74.96,9.58,1.93,19.17,2.89,28.75l2.72,56.57,5.44,34.26,9.25,33.73,22.85,40.25,21.76,34.26,33.73,32.09,27.74,21.76c4.17.55,8.34,1.09,12.51,1.64h0Z"/>
    <path class="cls-3" d="m225.01,386.1c13.61-11.77,27.2-23.53,40.81-35.31l41.82-42.64,24.18-46.76,9.07-52.72c1.44-27.92,2.87-55.86,4.31-83.78-1.18-2.54-2.74-5.49-4.81-8.63-3.65-5.53-7.19-9.07-7.9-9.8-4.44-4.58-16.48-21.34-44.48-64.45,4.17-3.97,7.7-4.86,10-5,11.27-.68,24.11,14.64,30,39,5.69,8.4,11.03,16.42,16,24,9.59,14.62,11.42,17.85,12.31,23.08,1.08,6.36-.4,8.8-2.68,24.23-.77,5.23-1.41,11.56-2.68,24.23-1.11,11.08-2.31,27.12-2.52,47.68l-5.04,28.88-8.57,28.43-21.16,33.93-20.15,28.88-31.24,27.05-25.69,18.34c-3.86.46-7.72.92-11.58,1.38Z"/>
  </g>
</svg>