<?xml version="1.0" encoding="UTF-8"?>
<svg xmlns="http://www.w3.org/2000/svg" viewBox="0 0 1252.66 833.45">
  <defs>
    <style>
      .cls-1, .cls-2 {
        fill: #7e8598;
      }

      .cls-3 {
        font-family: IrishGrover-Regular, 'Irish Grover';
        font-size: 32.87px;
      }

      .cls-2, .cls-4, .cls-5 {
        stroke: #000;
        stroke-miterlimit: 10;
        stroke-width: 3px;
      }

      .cls-4 {
        fill: none;
      }

      .cls-6 {
        fill: #82999f;
      }

      .cls-5 {
        fill: #fff;
      }
    </style>
  </defs>
  <g id="Layer_4" data-name="Layer 4">
    <g>
      <polygon class="cls-6" points="712.74 747.05 712.74 610.25 714.18 597.29 784.74 571.37 799.14 574.25 796.26 502.25 823.62 486.41 820.74 359.69 810.66 132.17 822.18 114.89 855.3 97.61 871.14 83.21 1013.7 83.21 1030.98 100.49 1061.22 119.21 1069.86 133.61 1069.86 158.09 1068.42 178.25 1075.62 395.69 1081.38 425.93 1079.94 456.17 1102.98 472.01 1107.3 535.37 1179.3 549.77 1189.38 559.85 1200.9 690.89 905.7 791.69 712.74 747.05"/>
      <polygon class="cls-1" points="798.88 566.24 883.41 570.68 1110.31 529.16 1187.42 545.47 1193.36 597.38 1205.22 699.7 898.24 793.13 708.42 753.09 708.42 598.86 798.88 566.24"/>
      <text class="cls-3" transform="translate(901.46 306.32) rotate(-.56)"><tspan x="0" y="0">Archives</tspan></text>
      <path class="cls-1" d="m796.26,500.81c8.8-6.72,17.6-13.44,26.4-20.16,20.48,1.92,40.96,3.84,61.44,5.76,65.28-10.08,130.56-20.16,195.84-30.24l23.04,15.84c-72.8,12.16-145.6,24.32-218.4,36.48-29.44-2.56-58.88-5.12-88.32-7.68Z"/>
      <line class="cls-5" x1="886.38" y1="485.33" x2="880.26" y2="508.01"/>
      <line class="cls-5" x1="883.62" y1="571.85" x2="892.98" y2="614.09"/>
      <line class="cls-5" x1="1077.78" y1="454.73" x2="1101.54" y2="471.05"/>
      <line class="cls-5" x1="1108.02" y1="530.09" x2="1189.62" y2="547.37"/>
      <line class="cls-5" x1="825.06" y1="478.49" x2="795.78" y2="501.77"/>
      <line class="cls-5" x1="798.88" y1="566.24" x2="709.38" y2="598.97"/>
      <line class="cls-5" x1="795.78" y1="501.77" x2="799.62" y2="571.37"/>
      <line class="cls-5" x1="812.1" y1="131.45" x2="825.06" y2="478.49"/>
      <line class="cls-5" x1="710.1" y1="599.69" x2="710.58" y2="754.25"/>
      <line class="cls-5" x1="880.26" y1="504.17" x2="884.1" y2="573.77"/>
      <line class="cls-5" x1="892.74" y1="611.69" x2="898.24" y2="793.13"/>
      <line class="cls-5" x1="1101.06" y1="471.05" x2="1108.26" y2="531.53"/>
      <line class="cls-5" x1="1189.62" y1="547.37" x2="1205.22" y2="699.7"/>
      <line class="cls-4" x1="794.82" y1="502.25" x2="880.26" y2="508.01"/>
      <line class="cls-4" x1="797.7" y1="570.89" x2="883.62" y2="571.85"/>
      <line class="cls-4" x1="710.1" y1="599.69" x2="892.74" y2="613.85"/>
      <line class="cls-4" x1="881.7" y1="508.49" x2="1101.54" y2="471.05"/>
      <line class="cls-4" x1="884.58" y1="572.33" x2="1108.02" y2="530.09"/>
      <line class="cls-4" x1="890.34" y1="614.09" x2="1189.86" y2="548.81"/>
      <polyline class="cls-4" points="1065.06 173.93 1074.18 393.29 1076.1 401.45 1078.5 409.61 1079.94 422.09 1080.9 441.29 1079.46 451.85 1076.1 459.05 881.22 486.89"/>
      <g>
        <polyline class="cls-2" points="881.34 486.89 825.08 478.48 811.49 133.54 825.44 111.42 843.71 103.25 855.25 96.52 867.27 85.46 921.13 81.13 915.84 95.08 896.12 102.77 879.3 114.31 870.64 134.99"/>
        <path class="cls-4" d="m921.98,81.05c30.53.88,61.07,1.76,91.6,2.64,5.47,6.34,7.93,9.08,9.09,10.31.06.07.53.54,1.16,1.22.29.31.5.55.61.67,1.52,1.7,2.28,2.55,2.6,2.87,0,0,.79.85,2.22,1.84,2.42,1.69,4.87,2.37,10.38,5.3,4.92,2.62,8.41,4.98,11.63,7.15,4.14,2.79,6.21,4.19,8.24,6.19,1.71,1.69,5.14,5.14,7.27,10.47.36.91,1.24,3.26,1.95,11.89.6,7.32.9,10.97.5,15.22-.39,4.13-1.46,10.35-4.82,17.59"/>
      </g>
      <line class="cls-2" x1="870.53" y1="135.61" x2="884.1" y2="486.41"/>
    </g>
  </g>
  <g id="Layer_5" data-name="Layer 5">
    <g>
      <polygon class="cls-6" points="146.05 785.33 146.05 648.53 147.49 635.57 218.05 609.65 232.45 612.53 229.57 540.53 256.93 524.69 254.05 397.97 243.97 170.45 255.49 153.17 288.61 135.89 304.45 121.49 447.01 121.49 464.29 138.77 494.53 157.49 503.17 171.89 503.17 196.37 501.73 216.53 508.93 433.97 514.69 464.21 513.25 494.45 536.29 510.29 540.61 573.65 612.61 588.05 622.69 598.13 634.21 729.17 339.01 829.97 146.05 785.33"/>
      <polygon class="cls-1" points="232.19 604.52 316.72 608.97 543.62 567.44 620.73 583.76 626.66 635.66 638.53 737.99 331.55 831.41 141.73 791.37 141.73 637.14 232.19 604.52"/>
      <text class="cls-3" transform="translate(334.77 344.6) rotate(-.56)"><tspan x="0" y="0">Archives</tspan></text>
      <path class="cls-1" d="m229.57,539.09c8.8-6.72,17.6-13.44,26.4-20.16,20.48,1.92,40.96,3.84,61.44,5.76,65.28-10.08,130.56-20.16,195.84-30.24l23.04,15.84c-72.8,12.16-145.6,24.32-218.4,36.48-29.44-2.56-58.88-5.12-88.32-7.68Z"/>
      <line class="cls-5" x1="319.69" y1="523.61" x2="313.57" y2="546.29"/>
      <line class="cls-5" x1="316.93" y1="610.13" x2="326.29" y2="652.37"/>
      <line class="cls-5" x1="511.09" y1="493.01" x2="534.85" y2="509.33"/>
      <line class="cls-5" x1="541.33" y1="568.37" x2="622.93" y2="585.65"/>
      <line class="cls-5" x1="258.37" y1="516.77" x2="229.09" y2="540.05"/>
      <line class="cls-5" x1="232.19" y1="604.52" x2="142.69" y2="637.25"/>
      <line class="cls-5" x1="229.09" y1="540.05" x2="232.93" y2="609.65"/>
      <line class="cls-5" x1="245.41" y1="169.73" x2="258.37" y2="516.77"/>
      <line class="cls-5" x1="143.41" y1="637.97" x2="143.89" y2="792.53"/>
      <line class="cls-5" x1="313.57" y1="542.45" x2="317.41" y2="612.05"/>
      <line class="cls-5" x1="326.05" y1="649.97" x2="331.55" y2="831.41"/>
      <line class="cls-5" x1="534.37" y1="509.33" x2="541.57" y2="569.81"/>
      <line class="cls-5" x1="622.93" y1="585.65" x2="638.53" y2="737.99"/>
      <line class="cls-4" x1="228.13" y1="540.53" x2="313.57" y2="546.29"/>
      <line class="cls-4" x1="231.01" y1="609.17" x2="316.93" y2="610.13"/>
      <line class="cls-4" x1="143.41" y1="637.97" x2="326.05" y2="652.13"/>
      <line class="cls-4" x1="315.01" y1="546.77" x2="534.85" y2="509.33"/>
      <line class="cls-4" x1="317.89" y1="610.61" x2="541.33" y2="568.37"/>
      <line class="cls-4" x1="323.65" y1="652.37" x2="623.17" y2="587.09"/>
      <polyline class="cls-4" points="498.37 212.21 507.49 431.57 509.41 439.73 511.81 447.89 513.25 460.37 514.21 479.57 512.77 490.13 509.41 497.33 314.53 525.17"/>
      <g>
        <polyline class="cls-2" points="314.65 525.17 258.39 516.76 244.8 171.83 258.75 149.71 277.02 141.53 288.56 134.8 300.58 123.74 354.44 119.41 349.15 133.36 329.43 141.05 312.6 152.59 303.95 173.27"/>
        <path class="cls-4" d="m355.28,119.33c30.53.88,61.07,1.76,91.6,2.64,5.47,6.34,7.93,9.08,9.09,10.31.06.07.53.54,1.16,1.22.29.31.5.55.61.67,1.52,1.7,2.28,2.55,2.6,2.87,0,0,.79.85,2.22,1.84,2.42,1.69,4.87,2.37,10.38,5.3,4.92,2.62,8.41,4.98,11.63,7.15,4.14,2.79,6.21,4.19,8.24,6.19,1.71,1.69,5.14,5.14,7.27,10.47.36.91,1.24,3.26,1.95,11.89.6,7.32.9,10.97.5,15.22-.39,4.13-1.46,10.35-4.82,17.59"/>
      </g>
      <line class="cls-2" x1="303.84" y1="173.89" x2="317.41" y2="524.69"/>
    </g>
  </g>
</svg>