<?xml version="1.0" encoding="UTF-8"?>
<svg id="Layer_1" data-name="Layer 1" xmlns="http://www.w3.org/2000/svg" viewBox="0 0 836.64 714.1">
  <defs>
    <style>
      .cls-1 {
        fill: #7d3725;
      }

      .cls-2 {
        fill: #b17d60;
      }
    </style>
  </defs>
  <polygon class="cls-2" points="836.64 240.23 829.58 175.63 814.14 95.77 776.21 29.5 740.16 8.95 692.45 0 670.37 8.77 596.12 26.63 525.47 47.71 443.58 75.58 404.61 100.35 332.66 159.13 224.96 239.08 180.35 273.06 134.98 293.4 109.56 352.3 65.24 427.99 39.44 480.07 28.84 547.03 14.97 640.85 10.82 694.79 16.19 711.25 32.43 714.1 48.09 706.72 61.78 688.5 82.19 625.78 110.1 532.19 119 501.93 139.52 477.52 154.65 442.46 160.48 436.66 149.71 494.39 142.37 540.3 122.43 574.94 106.1 606.99 114.07 627.06 132.3 634.93 148.36 628.56 171.07 612.57 182.33 599.96 193.53 610.62 216.92 643.17 238.93 663.48 261.36 673.16 279 676.62 296.02 687.29 310.65 691.94 329.72 684.37 336.97 673.36 285.6 605.44 267.24 570.9 240.27 529.31 247.38 491.63 258.03 486.24 254.56 509.7 264.52 534.79 288.05 588.2 298.81 615.3 349.75 693.84 365.78 699.1 387.28 685.92 395.56 662.87 370.64 603.05 347.79 519.16 342.42 502.7 346.42 427.9 362.68 419.12 360.79 452.41 361.95 472.87 371.32 493.55 376.24 532.27 375.11 579.19 376.24 611.28 395.59 651.24 413.43 652.29 426.08 646.11 435.37 622.66 444.51 578.37 443.55 482.3 449.36 403.3 469.11 365.24 504.75 311.58 532.32 272.75 556.04 250.55 567.11 234.53 605.83 229.61 640.71 235.52 704.28 240.49 774.07 240.67 836.64 240.23"/>
  <polygon class="cls-1" points="35.13 677 28.99 646.9 15.57 639.45 6.92 649.86 4.46 672.91 0 690.95 4.99 700.59 22.85 695.82 35.13 677"/>
  <polygon class="cls-1" points="309.71 669.07 296.27 667.44 278.8 679.02 292.01 688.88 308.24 691.73 325.53 676.74 309.71 669.07"/>
  <polygon class="cls-1" points="363.47 664 328.57 663.91 333.94 680.37 349.95 697.25 370.82 691.29 375.26 679.07 363.47 664"/>
  <polygon class="cls-1" points="403.62 648.05 418.51 627.03 409.76 599.14 390.11 596.48 376.63 612.29 379.38 636.76 387.17 647.61 403.62 648.05"/>
</svg>