<?xml version="1.0" encoding="UTF-8"?>
<svg id="Layer_1" data-name="Layer 1" xmlns="http://www.w3.org/2000/svg" viewBox="0 0 836.64 714.1">
  <defs>
    <style>
      .cls-1 {
        fill: #7d3725;
      }

      .cls-2 {
        fill: #b17d60;
      }
    </style>
  </defs>
  <polygon class="cls-2" points="0 240.23 7.06 175.63 22.5 95.77 60.43 29.5 96.48 8.95 144.19 0 166.27 8.77 240.52 26.63 311.17 47.71 393.06 75.58 432.03 100.35 503.98 159.13 611.68 239.08 656.29 273.06 701.66 293.4 727.08 352.3 771.4 427.99 797.2 480.07 807.8 547.03 821.67 640.85 825.82 694.79 820.45 711.25 804.21 714.1 788.55 706.72 774.86 688.5 754.45 625.78 726.54 532.19 717.64 501.93 697.12 477.52 681.99 442.46 676.16 436.66 686.93 494.39 694.27 540.3 714.21 574.94 730.54 606.99 722.57 627.06 704.34 634.93 688.28 628.56 665.57 612.57 654.31 599.96 643.11 610.62 619.72 643.17 597.71 663.48 575.28 673.16 557.64 676.62 540.62 687.29 525.99 691.94 506.92 684.37 499.67 673.36 551.04 605.44 569.4 570.9 596.37 529.31 589.26 491.63 578.61 486.24 582.08 509.7 572.12 534.79 548.59 588.2 537.83 615.3 486.89 693.84 470.86 699.1 449.36 685.92 441.08 662.87 466 603.05 488.85 519.16 494.22 502.7 490.22 427.9 473.96 419.12 475.85 452.41 474.69 472.87 465.32 493.55 460.4 532.27 461.53 579.19 460.4 611.28 441.05 651.24 423.21 652.29 410.56 646.11 401.27 622.66 392.13 578.37 393.09 482.3 387.28 403.3 367.53 365.24 331.89 311.58 304.32 272.75 280.6 250.55 269.53 234.53 230.81 229.61 195.93 235.52 132.36 240.49 62.57 240.67 0 240.23"/>
  <polygon class="cls-1" points="801.51 677 807.65 646.9 821.07 639.45 829.72 649.86 832.18 672.91 836.64 690.95 831.65 700.59 813.79 695.82 801.51 677"/>
  <polygon class="cls-1" points="526.93 669.07 540.37 667.44 557.84 679.02 544.63 688.88 528.4 691.73 511.11 676.74 526.93 669.07"/>
  <polygon class="cls-1" points="473.17 664 508.07 663.91 502.7 680.37 486.69 697.25 465.82 691.29 461.38 679.07 473.17 664"/>
  <polygon class="cls-1" points="433.02 648.05 418.13 627.03 426.88 599.14 446.53 596.48 460.01 612.29 457.26 636.76 449.47 647.61 433.02 648.05"/>
</svg>