<?xml version="1.0" encoding="UTF-8"?>
<svg xmlns="http://www.w3.org/2000/svg" viewBox="0 0 515.02 777.6">
  <defs>
    <style>
      .cls-1 {
        fill: none;
        stroke: #000;
        stroke-miterlimit: 10;
      }

      .cls-2 {
        fill: #4f5b58;
      }

      .cls-3 {
        fill: #8d0f05;
      }
    </style>
  </defs>
  <g id="Layer_2" data-name="Layer 2">
    <polyline class="cls-2" points="15.75 364.32 10.71 349.2 18.63 349.2 18.63 342.72 25.83 349.2 50.31 317.52 73.35 294.48 115.11 254.88 164.07 212.4 240.39 156.96 292.95 132.48 327.51 123.84 354.15 124.56 371.43 131.04 370.71 113.04 380.07 100.08 385.83 94.32 387.27 100.08 378.63 107.28 375.75 118.8 382.23 132.48 393.75 143.28 405.27 164.88 413.91 185.04 408.87 195.84 392.31 204.48 392.31 210.24 402.39 210.24 409.59 210.96 418.95 226.8 426.15 243.36 427.59 272.16 422.55 297.36 401.67 325.44 380.79 336.96 369.27 346.32 357.75 360.72 341.19 371.52 311.67 378 331.11 370.8 351.99 360 367.83 341.28 385.83 329.04 398.79 314.64 414.63 290.88 409.59 290.16 397.35 298.08 407.43 282.24 414.63 266.4 407.43 252 401.67 246.96 400.23 275.76 393.75 288.72 380.07 308.88 369.99 318.24 357.03 335.52 343.35 354.96 331.11 367.2 326.07 360.72 318.87 357.84 312.39 362.88 303.03 347.04 290.07 326.88 284.31 304.56 289.35 341.28 268.47 334.8 247.59 316.08 260.55 304.56 264.15 271.44 270.63 232.56 284.31 204.48 302.31 200.16 307.35 198 324.63 195.12 339.03 192.24 337.59 177.12 354.87 159.12 364.23 145.44 359.19 138.24 330.39 133.92 287.91 154.08 232.47 180.72 164.79 234.72 88.47 306 94.23 313.2 115.83 313.2 141.75 313.2 169.11 324.72 179.19 336.24 210.87 353.52 246.39 379.92 274.23 408.24 291.51 436.08 307.83 466.8 319.35 501.36 319.35 509.04 327.99 525.36 336.15 543.6 326.55 546.96 312.63 546 308.31 547.92 305.91 556.56 302.07 588.72 299.19 592.08 295.83 602.16 294.87 614.64 289.59 613.68 278.55 629.04 274.23 639.6 274.71 648.24 267.51 646.32 261.27 650.16 252.15 660.24 245.91 668.4 244.47 681.36 237.27 673.68 226.71 681.36 217.59 694.8 217.11 705.84 212.79 695.76 202.23 701.52 196.47 712.56 195.51 721.2 191.19 716.88 181.59 727.44 174.39 738.48 161.43 761.04 153.27 741.84 141.75 721.2 135.99 718.8 137.91 711.12 130.23 691.92 121.11 688.08 113.91 670.8 103.35 654 103.35 634.8 94.71 615.12 91.35 594.96 87.99 588.72 79.35 589.68 83.67 578.64 80.31 545.04 91.35 484.56 122.07 412.56 150.39 360.24 147.99 350.64 152.79 345.84 150.87 329.52 144.15 322.32 126.39 325.68 105.75 342.96 93.27 353.52 73.11 349.2 66.39 349.68 62.55 356.4 62.07 363.12 53.43 364.08 44.79 374.64 14.07 433.2 1.59 463.44"/>
  </g>
  <g id="Layer_3" data-name="Layer 3">
    <path class="cls-3" d="m249.76,323.05l-4.45-10.87,8.9-3.46,8.4-54.36,7.41-36.08,13.84-19.27,19.27-3.95,18.78-4.45,21.25-1.48,28.66,10.38,11.86,9.88,16.31,14.83,3.95,22.24-1.98,17.79-5.44,23.72-15.81,22.73-8.4,5.93-10.87,12.85-8.4,10.38-11.37,19.77-10.87,10.38-2.97-8.9h-6.92c-2.96-.37-5.93-.74-8.89-1.1l-7.91-6.31-6.42-12.85-16.8.99-16.31-6.42-14.83-12.36Z"/>
  </g>
  <g id="Layer_4" data-name="Layer 4">
    <path class="cls-1" d="m330.71,371.16c-1.27-3.36-2.53-6.72-3.8-10.08-4.96-.36-9.92-.72-14.88-1.08l-7.91-6.31c-2.14-4.28-4.28-8.57-6.42-12.85-2.49-2.9-4.99-5.8-7.48-8.7l-6.26-27.61,4.42-27.24,5.52-41.97v-22.09l8.1-13.25,19.92-9.38,21.25-1.48c9.55,3.46,19.11,6.92,28.66,10.38,9.39,8.24,18.78,16.47,28.17,24.71,1.32,7.41,2.64,14.83,3.95,22.24-.24,5.25-.48,10.5-.72,15.75l-2.95,12.88c-1.25,4.29-2.5,8.59-3.75,12.88-2.45,3.85-4.9,7.71-7.35,11.56-4.68,5.04-9.36,10.08-14.04,15.12-3.24,3.48-6.48,6.96-9.72,10.44l-11.16,13.68c-3.56,6.26-7.12,12.52-10.68,18.78l-12.88,13.62Z"/>
    <polygon class="cls-1" points="318.51 191.28 287.55 197.76 283.86 199 270.02 218.28 254.21 308.72 245.31 312.18 249.76 323.05 264.59 335.4 280.9 341.83 297.7 340.84 290.22 332.14 283.96 304.53 293.31 237.36 293.9 213.23 302 199.98 318.51 191.28"/>
  </g>
</svg>