<?xml version="1.0" encoding="UTF-8"?>
<svg xmlns="http://www.w3.org/2000/svg" viewBox="0 0 515.02 777.6">
  <defs>
    <style>
      .cls-1 {
        fill: none;
        stroke: #000;
        stroke-miterlimit: 10;
      }

      .cls-2 {
        fill: #4f5b58;
      }

      .cls-3 {
        fill: #8d0f05;
      }
    </style>
  </defs>
  <g id="Layer_2" data-name="Layer 2">
    <polyline class="cls-2" points="413.43 364.32 418.47 349.2 410.55 349.2 410.55 342.72 403.35 349.2 378.87 317.52 355.83 294.48 314.07 254.88 265.11 212.4 188.79 156.96 136.23 132.48 101.67 123.84 75.03 124.56 57.75 131.04 58.47 113.04 49.11 100.08 43.35 94.32 41.91 100.08 50.55 107.28 53.43 118.8 46.95 132.48 35.43 143.28 23.91 164.88 15.27 185.04 20.31 195.84 36.87 204.48 36.87 210.24 26.79 210.24 19.59 210.96 10.23 226.8 3.03 243.36 1.59 272.16 6.63 297.36 27.51 325.44 48.39 336.96 59.91 346.32 71.43 360.72 87.99 371.52 117.51 378 98.07 370.8 77.19 360 61.35 341.28 43.35 329.04 30.39 314.64 14.55 290.88 19.59 290.16 31.83 298.08 21.75 282.24 14.55 266.4 21.75 252 27.51 246.96 28.95 275.76 35.43 288.72 49.11 308.88 59.19 318.24 72.15 335.52 85.83 354.96 98.07 367.2 103.11 360.72 110.31 357.84 116.79 362.88 126.15 347.04 139.11 326.88 144.87 304.56 139.83 341.28 160.71 334.8 181.59 316.08 168.63 304.56 165.03 271.44 158.55 232.56 144.87 204.48 126.87 200.16 121.83 198 104.55 195.12 90.15 192.24 91.59 177.12 74.31 159.12 64.95 145.44 69.99 138.24 98.79 133.92 141.27 154.08 196.71 180.72 264.39 234.72 340.71 306 334.95 313.2 313.35 313.2 287.43 313.2 260.07 324.72 249.99 336.24 218.31 353.52 182.79 379.92 154.95 408.24 137.67 436.08 121.35 466.8 109.83 501.36 109.83 509.04 101.19 525.36 93.03 543.6 102.63 546.96 116.55 546 120.87 547.92 123.27 556.56 127.11 588.72 129.99 592.08 133.35 602.16 134.31 614.64 139.59 613.68 150.63 629.04 154.95 639.6 154.47 648.24 161.67 646.32 167.91 650.16 177.03 660.24 183.27 668.4 184.71 681.36 191.91 673.68 202.47 681.36 211.59 694.8 212.07 705.84 216.39 695.76 226.95 701.52 232.71 712.56 233.67 721.2 237.99 716.88 247.59 727.44 254.79 738.48 267.75 761.04 275.91 741.84 287.43 721.2 293.19 718.8 291.27 711.12 298.95 691.92 308.07 688.08 315.27 670.8 325.83 654 325.83 634.8 334.47 615.12 337.83 594.96 341.19 588.72 349.83 589.68 345.51 578.64 348.87 545.04 337.83 484.56 307.11 412.56 278.79 360.24 281.19 350.64 276.39 345.84 278.31 329.52 285.03 322.32 302.79 325.68 323.43 342.96 335.91 353.52 356.07 349.2 362.79 349.68 366.63 356.4 367.11 363.12 375.75 364.08 384.39 374.64 415.11 433.2 427.59 463.44"/>
  </g>
  <g id="Layer_3" data-name="Layer 3">
    <path class="cls-3" d="m179.43,323.05l4.45-10.87-8.9-3.46-8.4-54.36-7.41-36.08-13.84-19.27-19.27-3.95-18.78-4.45-21.25-1.48-28.66,10.38-11.86,9.88-16.31,14.83-3.95,22.24,1.98,17.79,5.44,23.72,15.81,22.73,8.4,5.93,10.87,12.85,8.4,10.38,11.37,19.77,10.87,10.38,2.97-8.9h6.92c2.96-.37,5.93-.74,8.89-1.1l7.91-6.31,6.42-12.85,16.8.99,16.31-6.42,14.83-12.36Z"/>
  </g>
  <g id="Layer_4" data-name="Layer 4">
    <path class="cls-1" d="m98.47,371.16c1.27-3.36,2.53-6.72,3.8-10.08,4.96-.36,9.92-.72,14.88-1.08l7.91-6.31c2.14-4.28,4.28-8.57,6.42-12.85,2.49-2.9,4.99-5.8,7.48-8.7l6.26-27.61-4.42-27.24-5.52-41.97v-22.09l-8.1-13.25-19.92-9.38-21.25-1.48c-9.55,3.46-19.11,6.92-28.66,10.38-9.39,8.24-18.78,16.47-28.17,24.71-1.32,7.41-2.64,14.83-3.95,22.24.24,5.25.48,10.5.72,15.75l2.95,12.88c1.25,4.29,2.5,8.59,3.75,12.88,2.45,3.85,4.9,7.71,7.35,11.56,4.68,5.04,9.36,10.08,14.04,15.12,3.24,3.48,6.48,6.96,9.72,10.44l11.16,13.68c3.56,6.26,7.12,12.52,10.68,18.78l12.88,13.62Z"/>
    <polygon class="cls-1" points="110.67 191.28 141.63 197.76 145.33 199 159.16 218.28 174.98 308.72 183.87 312.18 179.43 323.05 164.6 335.4 148.29 341.83 131.49 340.84 138.97 332.14 145.23 304.53 135.87 237.36 135.29 213.23 127.19 199.98 110.67 191.28"/>
  </g>
</svg>