<?xml version="1.0" encoding="UTF-8"?>
<svg id="Layer_1" data-name="Layer 1" xmlns="http://www.w3.org/2000/svg" viewBox="0 0 603.13 549.6">
  <defs>
    <style>
      .cls-1 {
        fill: none;
      }

      .cls-1, .cls-2 {
        stroke: #000;
        stroke-miterlimit: 10;
      }
    </style>
  </defs>
  <rect class="cls-2" x="1.36" y=".5" width="597.09" height="18.02"/>
  <g>
    <line class="cls-1" x1="507.98" y1="18.59" x2="598.72" y2="89.34"/>
    <line class="cls-1" x1="500.47" y1="15.39" x2="455.3" y2="127.02"/>
    <line class="cls-1" x1="503.37" y1="16.67" x2="565.66" y2="125.1"/>
    <line class="cls-1" x1="503.37" y1="15.51" x2="502.98" y2="135.86"/>
    <line class="cls-1" x1="497.6" y1="16.67" x2="399.93" y2="90.87"/>
    <line class="cls-1" x1="492.6" y1="15.13" x2="364.94" y2="67.8"/>
    <path class="cls-1" d="m455.3,18.59c3.17-.26,5.91,1.66,6.54,4.23.67,2.75-1.37,5.01-1.54,5.19,3.66-1.99,7.95-.93,9.8,1.92,1.33,2.05,1.29,4.84,0,7.21,4.16-1.68,9.92-3.34,13.07-.67,3.65,3.08,3.91,13.47,4.23,10.96.62-4.85,5.24-8.04,9.61-7.11,3.99.85,6.85,4.94,6.15,9.32-.84-4.41,1.86-8.73,6.06-9.9,4-1.12,8.34.91,10.09,4.81-1.43-2.99-.9-6.49,1.25-8.65,2.61-2.63,7.18-2.86,10.38-.19-1.43-2.06-1.67-4.65-.58-6.54,1.53-2.63,5.55-3.71,8.94-1.73-2.04-1.13-2.94-3.6-2.11-5.77.83-2.19,3.19-3.43,5.48-2.88"/>
    <path class="cls-1" d="m443.58,18.97c3.42-.3,6.64,1.58,7.98,4.61,1.47,3.33.38,7.38-2.69,9.61,4.47-2.78,10.04-1.33,12.21,2.4,1.68,2.89,1.19,6.91-1.35,9.8,4.08-2.03,10.27-4.23,15.38-1.92.39.17.68.33.77.38,5.04,2.79,6.52,9.22,7.02,13.17,1.15-5.66,6.73-9.31,12.21-8.17,5.26,1.09,8.89,6.25,8.07,11.73-.11-5.46,3.49-10.3,8.65-11.73,4.91-1.36,10.23.66,13.07,5-1.37-3.58-.7-7.55,1.73-10.09,3.15-3.29,8.79-3.73,12.98-.58-1.79-2.66-2.03-6.02-.58-8.65,1.85-3.34,6.14-4.99,10.19-3.65-2.25-1.51-3.47-4.12-3.08-6.63.48-3.11,3.34-5.59,6.82-5.67"/>
    <path class="cls-1" d="m430.18,18.97c4.11.67,7.53,3.48,8.84,7.31,1.51,4.41-.02,9.43-3.85,12.43,5.62-3.33,12.54-1.32,15.12,3.46,2.05,3.78,1.19,8.94-2.31,12.43,6.66-4.37,15.37-4.11,21.66.64,6.06,4.57,8.76,12.45,6.79,19.87,1.75-6.97,8.67-11.41,15.64-10.13,6.8,1.26,11.64,7.62,11.02,14.61.56-6.93,5.05-12.88,11.41-15.12,7.11-2.51,15.26.07,19.87,6.41,2.36,3.25-2.03-11.39,2.05-16.15,2.99-3.5,9.6-2.95,15.64-1.54-4.28-3.22-5.59-8.96-3.33-13.33,2.56-4.97,9.18-7.11,14.61-4.23-4.35-1.33-6.96-5.79-6.02-10.13.97-4.5,5.48-7.52,10.13-6.66"/>
    <path class="cls-1" d="m403.52,17.95c.69.16,11.42,2.84,14.87,13.07,2.41,7.13-.28,13.31-.96,14.77,8.61-4.43,17.97-.74,20.44,5.48,1.73,4.34.11,9.96-3.91,14.03,9.04-4.69,20-3.42,27.49,3.14,6.92,6.06,9.8,15.68,7.4,24.74,3.7-7.79,12.44-11.93,20.8-9.87,8.39,2.07,14.21,9.87,13.81,18.52,1.08-8.93,7.05-16.52,15.41-19.55,8.84-3.2,18.85-.78,25.38,6.15-5.07-7.76-3.13-18.02,3.85-23.07,6.22-4.51,15.21-3.99,21.28,1.54-5.99-4.87-7.43-13.14-3.85-18.97,2.85-4.64,8.52-7.17,14.35-6.41-4.49-3.09-6.71-8.48-5.64-13.59,1.41-6.7,7.73-9.3,8.2-9.48"/>
    <path class="cls-1" d="m380.97,18.46c8.05,1.31,14.76,6.93,17.43,14.61,2.72,7.81.83,16.53-4.87,22.56,12.55-7.1,25.61-2.56,28.71,4.87,2.13,5.1-.22,12.05-5.13,17.43,10.93-5.05,23.68-3.78,33.07,3.33,12.92,9.79,12.61,25.45,12.56,26.92.35-.41,9.08-10.28,21.79-7.95,9.17,1.68,16.52,9.01,18.46,18.46.34-1.2,4.83-16.09,19.99-21.02,10.77-3.5,22.74-.62,31.02,7.43-3.48-8.34-1.71-17.84,4.36-23.84,7.16-7.08,19.04-8.04,27.94-1.79-6.9-5.88-8.68-15.58-4.61-22.81,3.35-5.96,10.21-9.43,17.43-8.84l-92.28-31.14"/>
  </g>
  <g>
    <line class="cls-1" x1="95.15" y1="17.05" x2="4.41" y2="87.8"/>
    <line class="cls-1" x1="102.66" y1="13.85" x2="147.83" y2="125.48"/>
    <line class="cls-1" x1="99.77" y1="15.13" x2="37.48" y2="123.56"/>
    <line class="cls-1" x1="99.77" y1="13.97" x2="100.15" y2="134.32"/>
    <line class="cls-1" x1="105.53" y1="15.13" x2="203.2" y2="89.34"/>
    <line class="cls-1" x1="110.53" y1="13.59" x2="238.19" y2="66.27"/>
    <path class="cls-1" d="m147.83,17.05c-3.17-.26-5.91,1.66-6.54,4.23-.67,2.75,1.37,5.01,1.54,5.19-3.66-1.99-7.95-.93-9.8,1.92-1.33,2.05-1.29,4.84,0,7.21-4.16-1.68-9.92-3.34-13.07-.67-3.65,3.08-3.91,13.47-4.23,10.96-.62-4.85-5.24-8.04-9.61-7.11-3.99.85-6.85,4.94-6.15,9.32.84-4.41-1.86-8.73-6.06-9.9-4-1.12-8.34.91-10.09,4.81,1.43-2.99.9-6.49-1.25-8.65-2.61-2.63-7.18-2.86-10.38-.19,1.43-2.06,1.67-4.65.58-6.54-1.53-2.63-5.55-3.71-8.94-1.73,2.04-1.13,2.94-3.6,2.11-5.77-.83-2.19-3.19-3.43-5.48-2.88"/>
    <path class="cls-1" d="m159.56,17.43c-3.42-.3-6.64,1.58-7.98,4.61-1.47,3.33-.38,7.38,2.69,9.61-4.47-2.78-10.04-1.33-12.21,2.4-1.68,2.89-1.19,6.91,1.35,9.8-4.08-2.03-10.27-4.23-15.38-1.92-.39.17-.68.33-.77.38-5.04,2.79-6.52,9.22-7.02,13.17-1.15-5.66-6.73-9.31-12.21-8.17-5.26,1.09-8.89,6.25-8.07,11.73.11-5.46-3.49-10.3-8.65-11.73-4.91-1.36-10.23.66-13.07,5,1.37-3.58.7-7.55-1.73-10.09-3.15-3.29-8.79-3.73-12.98-.58,1.79-2.66,2.03-6.02.58-8.65-1.85-3.34-6.14-4.99-10.19-3.65,2.25-1.51,3.47-4.12,3.08-6.63-.48-3.11-3.34-5.59-6.82-5.67"/>
    <path class="cls-1" d="m172.95,17.43c-4.11.67-7.53,3.48-8.84,7.31-1.51,4.41.02,9.43,3.85,12.43-5.62-3.33-12.54-1.32-15.12,3.46-2.05,3.78-1.19,8.94,2.31,12.43-6.66-4.37-15.37-4.11-21.66.64-6.06,4.57-8.76,12.45-6.79,19.87-1.75-6.97-8.67-11.41-15.64-10.13-6.8,1.26-11.64,7.62-11.02,14.61-.56-6.93-5.05-12.88-11.41-15.12-7.11-2.51-15.26.07-19.87,6.41-2.36,3.25,2.03-11.39-2.05-16.15-2.99-3.5-9.6-2.95-15.64-1.54,4.28-3.22,5.59-8.96,3.33-13.33-2.56-4.97-9.18-7.11-14.61-4.23,4.35-1.33,6.96-5.79,6.02-10.13-.97-4.5-5.48-7.52-10.13-6.66"/>
    <path class="cls-1" d="m199.61,16.41c-.69.16-11.42,2.84-14.87,13.07-2.41,7.13.28,13.31.96,14.77-8.61-4.43-17.97-.74-20.44,5.48-1.73,4.34-.11,9.96,3.91,14.03-9.04-4.69-20-3.42-27.49,3.14-6.92,6.06-9.8,15.68-7.4,24.74-3.7-7.79-12.44-11.93-20.8-9.87-8.39,2.07-14.21,9.87-13.81,18.52-1.08-8.93-7.05-16.52-15.41-19.55-8.84-3.2-18.85-.78-25.38,6.15,5.07-7.76,3.13-18.02-3.85-23.07-6.22-4.51-15.21-3.99-21.28,1.54,5.99-4.87,7.43-13.14,3.85-18.97-2.85-4.64-8.52-7.17-14.35-6.41,4.49-3.09,6.71-8.48,5.64-13.59-1.41-6.7-7.73-9.3-8.2-9.48"/>
    <path class="cls-1" d="m222.17,16.92c-8.05,1.31-14.76,6.93-17.43,14.61-2.72,7.81-.83,16.53,4.87,22.56-12.55-7.1-25.61-2.56-28.71,4.87-2.13,5.1.22,12.05,5.13,17.43-10.93-5.05-23.68-3.78-33.07,3.33-12.92,9.79-12.61,25.45-12.56,26.92-.35-.41-9.08-10.28-21.79-7.95-9.17,1.68-16.52,9.01-18.46,18.46-.34-1.2-4.83-16.09-19.99-21.02-10.77-3.5-22.74-.62-31.02,7.43,3.48-8.34,1.71-17.84-4.36-23.84-7.16-7.08-19.04-8.04-27.94-1.79,6.9-5.88,8.68-15.58,4.61-22.81-3.35-5.96-10.21-9.43-17.43-8.84L96.3,15.13"/>
  </g>
  <line class="cls-1" x1="97.71" y1="19.66" x2="141.36" y2="252.57"/>
  <line class="cls-1" x1="497.6" y1="16.67" x2="470.36" y2="334.57"/>
  <line class="cls-1" x1="278.43" y1="11.97" x2="312.36" y2="549.57"/>
</svg>