<?xml version="1.0" encoding="UTF-8"?>
<svg id="Layer_1" data-name="Layer 1" xmlns="http://www.w3.org/2000/svg" viewBox="0 0 158.28 642.3">
  <polyline points="90.6 610.8 93.48 603.12 95.28 595.56 96.72 587.28 96.84 577.92 96.12 569.64 94.08 563.16 92.16 555.84 88.68 546.48 87.12 541.44 83.88 534.24 79.2 525 76.92 519.48 73.8 513 69.84 505.68 64.08 495 58.8 485.52 55.8 478.92 55.32 473.52 53.52 470.64 50.52 460.08 47.88 456.12 44.04 452.64 42.84 449.52 42.48 444.48 44.04 442.2 45.36 442.2 48.84 438.48 52.08 431.76 55.32 423 57 414.96 56.52 411.36 55.2 407.04 52.32 403.2 50.76 402.6 49.44 401.64 46.68 399.96 45.36 399.96 41.64 398.4 36.48 396.96 30.72 395.16 27.48 393.84 27.36 393 24.48 392.04 23.4 388.8 20.76 385.92 19.2 384.48 17.76 383.16 17.28 381.48 15 379.32 15.12 378.24 12.96 376.92 10.92 375.36 10.92 374.28 9.24 372.72 5.4 370.32 2.76 367.8 1.08 367.08 .36 366 1.08 365.28 0 364.8 1.44 364.08 3.36 366.12 4.08 365.88 5.64 366.72 6.12 366.36 9.48 370.08 9.72 368.88 2.76 364.08 4.56 364.08 4.8 362.76 5.88 363.72 6.36 363.24 14.28 368.64 13.92 367.2 15.36 367.92 16.8 369.72 21 372.36 19.44 370.2 20.16 369.84 27.48 376.44 31.92 380.88 33.96 383.28 40.68 385.8 45.96 386.16 51.12 386.88 55.08 388.8 59.28 391.92 62.4 395.88 63.72 398.28 65.64 398.28 68.4 394.2 70.56 387.96 71.4 384.12 71.76 379.44 72.72 380.16 74.52 372 73.08 369.48 71.4 363.48 69.72 360.48 68.76 357.12 66.12 352.8 68.16 353.88 65.52 350.16 65.88 349.2 60.84 342.12 60.12 342.36 56.16 335.64 52.92 333 51.96 331.56 52.44 330.48 49.56 325.68 49.8 324.24 50.88 323.16 48.12 314.76 46.08 311.16 45.24 308.64 43.56 306.48 43.2 302.64 44.04 303.84 43.92 301.44 45.12 303.12 45.36 305.28 46.2 306.96 46.56 305.76 47.64 305.04 48 303.36 48.84 303.24 48.96 304.44 49.8 305.64 50.04 307.56 50.88 310.08 51.48 311.64 52.56 311.04 52.8 309.48 53.28 309 55.8 316.56 61.32 325.68 66.72 331.92 68.28 333.12 80.52 351.12 82.08 357.24 82.08 343.2 82.2 335.28 83.64 321.96 81.96 306.24 78.72 293.52 76.56 277.08 75.48 274.08 75.24 269.64 74.4 267.36 74.04 265.68 73.44 264.12 71.52 261.72 68.16 254.52 66.36 248.4 63.72 243 63.48 241.68 61.92 239.52 60.72 236.76 55.2 230.16 52.32 226.92 52.92 226.32 51.24 224.16 49.32 222.48 46.8 218.64 43.08 215.88 44.4 216 45.84 216.84 42 211.8 41.76 212.76 37.92 206.64 33.36 201.12 33.6 200.04 32.16 199.32 30.48 197.28 27.12 194.28 26.16 192.84 25.44 193.56 21.48 190.08 19.56 186.84 17.52 185.4 17.16 184.08 15.84 181.56 16.68 182.04 18.36 184.68 18.96 184.68 20.52 186.6 21.24 186.6 21.84 186.24 21.24 185.16 21.72 183.72 20.88 182.52 21 181.92 19.68 180.24 20.4 179.88 20.28 178.92 21.48 177.96 22.8 179.52 27.36 185.52 29.16 187.08 30.6 188.28 32.88 189.84 37.32 194.28 38.4 195.6 39.36 195.12 40.08 193.44 40.44 187.8 39.96 185.28 39.48 183.6 39.84 180.48 39.12 178.08 38.88 175.32 39.48 174.48 39.12 170.04 39.72 169.92 39.96 163.8 39.36 162.84 39.84 161.88 40.68 146.76 40.44 140.04 38.76 135.12 38.88 134.4 36.36 128.64 36.6 127.32 35.64 124.56 36.12 122.88 35.4 120.12 36 111.6 34.56 116.52 33.72 120.96 33.24 124.44 32.88 119.16 34.8 112.56 34.92 105.72 34.08 100.56 31.56 96.6 31.56 92.28 27.84 78.12 26.16 71.64 24.6 70.2 25.44 70.08 22.8 67.08 21.12 66.36 19.92 66.6 18.24 64.92 16.56 63.24 15 62.4 13.92 60.72 12.24 59.4 10.2 57.6 8.76 57.6 6.12 55.32 4.08 53.28 2.04 51 1.56 48.96 2.16 46.68 4.32 43.56 2.64 39.48 2.04 35.28 3.84 39.12 6.48 42.48 7.32 43.56 5.76 45 5.4 46.68 8.76 48.84 14.52 52.08 16.32 54.48 19.8 57 25.68 59.52 23.16 51.48 21.24 46.92 21.84 45.72 21.6 44.76 22.68 45.24 23.04 44.76 23.76 46.44 24.12 45.84 25.8 50.52 27.12 54.84 28.08 57.48 30.12 60.72 31.44 63.72 32.52 66.84 33.72 71.64 36 79.44 37.32 85.32 39 91.32 40.08 92.64 42.24 91.56 46.68 85.2 49.8 80.64 51.12 79.44 53.16 77.16 54.24 75.24 55.2 66.48 56.88 61.92 60.48 51.6 64.2 46.44 68.4 43.08 73.56 39.48 73.08 37.8 71.16 31.92 71.52 27.72 73.08 23.76 76.08 18.96 79.2 15.48 81 11.76 81.96 7.08 80.76 1.68 81.24 0 81.6 1.44 83.4 4.2 84.24 6.6 84.36 10.08 82.2 15.84 82.56 16.44 81.6 16.8 78.84 20.4 75.72 24.84 74.4 28.44 74.16 31.56 74.76 34.08 76.44 35.04 79.8 29.52 81.24 27.48 82.44 28.32 87.12 25.32 92.16 23.76 96.12 22.92 96.6 23.52 97.92 23.4 91.92 24.96 88.08 26.16 83.4 29.64 80.76 32.52 78.84 35.16 78 36.36 79.44 36.84 79.2 37.56 77.4 37.8 76.68 39.36 76.92 40.8 76.44 44.52 74.76 47.76 73.56 49.68 72.84 51.24 73.68 54.24 74.64 56.4 78.36 57.6 79.92 59.28 79.32 62.52 77.64 68.64 74.64 69.96 70.68 70.44 67.8 72.12 66.36 73.92 65.04 73.44 63.96 74.88 62.64 76.32 61.92 77.88 60.6 78.24 59.04 80.04 56.28 82.32 54.24 84.12 51.12 87.36 48.84 91.68 46.44 96.48 47.16 97.32 45.84 99.24 45.12 100.44 45.36 102.24 43.92 103.8 44.64 111.24 45 113.76 44.4 118.08 45.36 123.36 46.32 127.56 47.64 130.68 49.68 134.04 49.2 139.32 49.44 152.88 48.72 156.36 48.72 162.24 49.8 167.04 48.96 170.16 49.32 174.84 49.32 180.12 49.56 185.19 49.83 192.39 50.01 195.18 51.9 195.18 50.28 197.61 50.73 200.49 51.27 203.91 55.68 211.29 61.35 218.22 65.22 222.63 68.28 226.77 70.35 231 72.78 236.67 73.68 236.85 73.68 237.93 77.73 248.01 79.26 247.38 80.88 243.96 85.56 235.32 91.32 227.22 96.36 219.12 102.48 212.82 102.66 213.9 104.82 211.56 103.02 211.74 108.78 206.88 114 202.74 113.82 204 117.78 200.58 119.94 199.32 122.1 198.42 124.26 197.52 126.24 195.9 131.64 193.56 132.72 192.66 138.48 190.32 140.1 187.98 141.36 187.98 146.94 184.02 151.98 179.52 153.6 177 154.32 177.54 155.39 176.06 155.76 175.56 155.76 177.9 158.28 178.26 158.1 180.42 156.3 183.84 154.32 185.46 155.04 186 145.14 193.56 142.08 196.08 130.2 201.84 124.62 204.54 121.56 206.16 120.48 206.88 121.38 207.42 118.86 208.32 113.46 212.64 109.5 215.7 105 220.02 100.5 225.78 96.18 231.36 87.72 244.86 85.02 254.04 86.1 259.26 89.7 275.28 91.14 286.44 93.66 298.14 96.18 306.78 97.08 315.78 96.9 317.58 99.96 321 101.22 325.32 104.1 327.48 106.8 326.58 108.6 328.38 109.5 329.64 105.9 331.98 102.84 335.4 101.58 339.9 101.58 349.44 102.66 353.4 101.94 357.36 99.96 359.52 99.42 361.5 98.16 363.12 97.8 365.46 96.36 366.72 91.5 381.84 83.58 403.8 78.9 417.12 75.66 424.5 75.84 427.56 73.86 430.62 73.32 436.92 73.86 444.12 74.94 450.06 77.46 454.38 83.94 453.48 93.12 450.78 107.34 445.56 108.42 447.18 115.08 445.56 120.66 442.32 122.46 441.96 126.6 444.84 125.7 447 123.36 447.18 122.82 448.26 123.72 449.7 120.66 452.22 113.64 455.46 102.48 461.04 92.22 465.9 87.9 469.86 86.64 473.28 86.46 477.78 91.32 488.4 96.18 498.48 102.84 512.34 109.68 526.02 111.84 533.22 116.52 544.92 119.76 554.64 122.82 565.8 124.8 578.4 123.18 592.8 121.02 605.04 115.98 624.12 112.2 636.18 110.94 642.3"/>
</svg>