<?xml version="1.0" encoding="UTF-8"?>
<svg id="Layer_1" data-name="Layer 1" xmlns="http://www.w3.org/2000/svg" viewBox="0 0 158.28 642.3">
  <polyline points="67.68 610.8 64.8 603.12 63 595.56 61.56 587.28 61.44 577.92 62.16 569.64 64.2 563.16 66.12 555.84 69.6 546.48 71.16 541.44 74.4 534.24 79.08 525 81.36 519.48 84.48 513 88.44 505.68 94.2 495 99.48 485.52 102.48 478.92 102.96 473.52 104.76 470.64 107.76 460.08 110.4 456.12 114.24 452.64 115.44 449.52 115.8 444.48 114.24 442.2 112.92 442.2 109.44 438.48 106.2 431.76 102.96 423 101.28 414.96 101.76 411.36 103.08 407.04 105.96 403.2 107.52 402.6 108.84 401.64 111.6 399.96 112.92 399.96 116.64 398.4 121.8 396.96 127.56 395.16 130.8 393.84 130.92 393 133.8 392.04 134.88 388.8 137.52 385.92 139.08 384.48 140.52 383.16 141 381.48 143.28 379.32 143.16 378.24 145.32 376.92 147.36 375.36 147.36 374.28 149.04 372.72 152.88 370.32 155.52 367.8 157.2 367.08 157.92 366 157.2 365.28 158.28 364.8 156.84 364.08 154.92 366.12 154.2 365.88 152.64 366.72 152.16 366.36 148.8 370.08 148.56 368.88 155.52 364.08 153.72 364.08 153.48 362.76 152.4 363.72 151.92 363.24 144 368.64 144.36 367.2 142.92 367.92 141.48 369.72 137.28 372.36 138.84 370.2 138.12 369.84 130.8 376.44 126.36 380.88 124.32 383.28 117.6 385.8 112.32 386.16 107.16 386.88 103.2 388.8 99 391.92 95.88 395.88 94.56 398.28 92.64 398.28 89.88 394.2 87.72 387.96 86.88 384.12 86.52 379.44 85.56 380.16 83.76 372 85.2 369.48 86.88 363.48 88.56 360.48 89.52 357.12 92.16 352.8 90.12 353.88 92.76 350.16 92.4 349.2 97.44 342.12 98.16 342.36 102.12 335.64 105.36 333 106.32 331.56 105.84 330.48 108.72 325.68 108.48 324.24 107.4 323.16 110.16 314.76 112.2 311.16 113.04 308.64 114.72 306.48 115.08 302.64 114.24 303.84 114.36 301.44 113.16 303.12 112.92 305.28 112.08 306.96 111.72 305.76 110.64 305.04 110.28 303.36 109.44 303.24 109.32 304.44 108.48 305.64 108.24 307.56 107.4 310.08 106.8 311.64 105.72 311.04 105.48 309.48 105 309 102.48 316.56 96.96 325.68 91.56 331.92 90 333.12 77.76 351.12 76.2 357.24 76.2 343.2 76.08 335.28 74.64 321.96 76.32 306.24 79.56 293.52 81.72 277.08 82.8 274.08 83.04 269.64 83.88 267.36 84.24 265.68 84.84 264.12 86.76 261.72 90.12 254.52 91.92 248.4 94.56 243 94.8 241.68 96.36 239.52 97.56 236.76 103.08 230.16 105.96 226.92 105.36 226.32 107.04 224.16 108.96 222.48 111.48 218.64 115.2 215.88 113.88 216 112.44 216.84 116.28 211.8 116.52 212.76 120.36 206.64 124.92 201.12 124.68 200.04 126.12 199.32 127.8 197.28 131.16 194.28 132.12 192.84 132.84 193.56 136.8 190.08 138.72 186.84 140.76 185.4 141.12 184.08 142.44 181.56 141.6 182.04 139.92 184.68 139.32 184.68 137.76 186.6 137.04 186.6 136.44 186.24 137.04 185.16 136.56 183.72 137.4 182.52 137.28 181.92 138.6 180.24 137.88 179.88 138 178.92 136.8 177.96 135.48 179.52 130.92 185.52 129.12 187.08 127.68 188.28 125.4 189.84 120.96 194.28 119.88 195.6 118.92 195.12 118.2 193.44 117.84 187.8 118.32 185.28 118.8 183.6 118.44 180.48 119.16 178.08 119.4 175.32 118.8 174.48 119.16 170.04 118.56 169.92 118.32 163.8 118.92 162.84 118.44 161.88 117.6 146.76 117.84 140.04 119.52 135.12 119.4 134.4 121.92 128.64 121.68 127.32 122.64 124.56 122.16 122.88 122.88 120.12 122.28 111.6 123.72 116.52 124.56 120.96 125.04 124.44 125.4 119.16 123.48 112.56 123.36 105.72 124.2 100.56 126.72 96.6 126.72 92.28 130.44 78.12 132.12 71.64 133.68 70.2 132.84 70.08 135.48 67.08 137.16 66.36 138.36 66.6 140.04 64.92 141.72 63.24 143.28 62.4 144.36 60.72 146.04 59.4 148.08 57.6 149.52 57.6 152.16 55.32 154.2 53.28 156.24 51 156.72 48.96 156.12 46.68 153.96 43.56 155.64 39.48 156.24 35.28 154.44 39.12 151.8 42.48 150.96 43.56 152.52 45 152.88 46.68 149.52 48.84 143.76 52.08 141.96 54.48 138.48 57 132.6 59.52 135.12 51.48 137.04 46.92 136.44 45.72 136.68 44.76 135.6 45.24 135.24 44.76 134.52 46.44 134.16 45.84 132.48 50.52 131.16 54.84 130.2 57.48 128.16 60.72 126.84 63.72 125.76 66.84 124.56 71.64 122.28 79.44 120.96 85.32 119.28 91.32 118.2 92.64 116.04 91.56 111.6 85.2 108.48 80.64 107.16 79.44 105.12 77.16 104.04 75.24 103.08 66.48 101.4 61.92 97.8 51.6 94.08 46.44 89.88 43.08 84.72 39.48 85.2 37.8 87.12 31.92 86.76 27.72 85.2 23.76 82.2 18.96 79.08 15.48 77.28 11.76 76.32 7.08 77.52 1.68 77.04 0 76.68 1.44 74.88 4.2 74.04 6.6 73.92 10.08 76.08 15.84 75.72 16.44 76.68 16.8 79.44 20.4 82.56 24.84 83.88 28.44 84.12 31.56 83.52 34.08 81.84 35.04 78.48 29.52 77.04 27.48 75.84 28.32 71.16 25.32 66.12 23.76 62.16 22.92 61.68 23.52 60.36 23.4 66.36 24.96 70.2 26.16 74.88 29.64 77.52 32.52 79.44 35.16 80.28 36.36 78.84 36.84 79.08 37.56 80.88 37.8 81.6 39.36 81.36 40.8 81.84 44.52 83.52 47.76 84.72 49.68 85.44 51.24 84.6 54.24 83.64 56.4 79.92 57.6 78.36 59.28 78.96 62.52 80.64 68.64 83.64 69.96 87.6 70.44 90.48 72.12 91.92 73.92 93.24 73.44 94.32 74.88 95.64 76.32 96.36 77.88 97.68 78.24 99.24 80.04 102 82.32 104.04 84.12 107.16 87.36 109.44 91.68 111.84 96.48 111.12 97.32 112.44 99.24 113.16 100.44 112.92 102.24 114.36 103.8 113.64 111.24 113.28 113.76 113.88 118.08 112.92 123.36 111.96 127.56 110.64 130.68 108.6 134.04 109.08 139.32 108.84 152.88 109.56 156.36 109.56 162.24 108.48 167.04 109.32 170.16 108.96 174.84 108.96 180.12 108.72 185.19 108.45 192.39 108.27 195.18 106.38 195.18 108 197.61 107.55 200.49 107.01 203.91 102.6 211.29 96.93 218.22 93.06 222.63 90 226.77 87.93 231 85.5 236.67 84.6 236.85 84.6 237.93 80.55 248.01 79.02 247.38 77.4 243.96 72.72 235.32 66.96 227.22 61.92 219.12 55.8 212.82 55.62 213.9 53.46 211.56 55.26 211.74 49.5 206.88 44.28 202.74 44.46 204 40.5 200.58 38.34 199.32 36.18 198.42 34.02 197.52 32.04 195.9 26.64 193.56 25.56 192.66 19.8 190.32 18.18 187.98 16.92 187.98 11.34 184.02 6.3 179.52 4.68 177 3.96 177.54 2.89 176.06 2.52 175.56 2.52 177.9 0 178.26 .18 180.42 1.98 183.84 3.96 185.46 3.24 186 13.14 193.56 16.2 196.08 28.08 201.84 33.66 204.54 36.72 206.16 37.8 206.88 36.9 207.42 39.42 208.32 44.82 212.64 48.78 215.7 53.28 220.02 57.78 225.78 62.1 231.36 70.56 244.86 73.26 254.04 72.18 259.26 68.58 275.28 67.14 286.44 64.62 298.14 62.1 306.78 61.2 315.78 61.38 317.58 58.32 321 57.06 325.32 54.18 327.48 51.48 326.58 49.68 328.38 48.78 329.64 52.38 331.98 55.44 335.4 56.7 339.9 56.7 349.44 55.62 353.4 56.34 357.36 58.32 359.52 58.86 361.5 60.12 363.12 60.48 365.46 61.92 366.72 66.78 381.84 74.7 403.8 79.38 417.12 82.62 424.5 82.44 427.56 84.42 430.62 84.96 436.92 84.42 444.12 83.34 450.06 80.82 454.38 74.34 453.48 65.16 450.78 50.94 445.56 49.86 447.18 43.2 445.56 37.62 442.32 35.82 441.96 31.68 444.84 32.58 447 34.92 447.18 35.46 448.26 34.56 449.7 37.62 452.22 44.64 455.46 55.8 461.04 66.06 465.9 70.38 469.86 71.64 473.28 71.82 477.78 66.96 488.4 62.1 498.48 55.44 512.34 48.6 526.02 46.44 533.22 41.76 544.92 38.52 554.64 35.46 565.8 33.48 578.4 35.1 592.8 37.26 605.04 42.3 624.12 46.08 636.18 47.34 642.3"/>
</svg>